<svg width="30" height="30" viewBox="0 0 30 30" fill="none" xmlns="http://www.w3.org/2000/svg">
<path d="M2.25 25.2258C1.65 25.2258 1.125 25.0268 0.675 24.6288C0.225 24.2308 0 23.7665 0 23.2359V5.98992C0 5.45927 0.225 4.99496 0.675 4.59698C1.125 4.19899 1.65 4 2.25 4H27.75C28.35 4 28.875 4.19899 29.325 4.59698C29.775 4.99496 30 5.45927 30 5.98992V23.2359C30 23.7665 29.775 24.2308 29.325 24.6288C28.875 25.0268 28.35 25.2258 27.75 25.2258H2.25ZM15 15.2099L2.25 7.81401V23.2359H27.75V7.81401L15 15.2099ZM15 13.22L27.6 5.98992H2.4375L15 13.22Z" fill="#C29EDF"/>
</svg>
