<svg width="30" height="31" viewBox="0 0 30 31" fill="none" xmlns="http://www.w3.org/2000/svg">
<g clip-path="url(#clip0_1125_970)">
<path d="M4.04491 1.82727C2.19815 1.82727 0.857422 3.1012 0.857422 4.85514C0.857422 6.6085 2.17155 7.88124 3.98106 7.88124C4.91981 7.88124 5.7285 7.5768 6.32024 7.00102C6.88775 6.44829 7.20047 5.6863 7.19988 4.84155C7.15849 3.06691 5.86092 1.82727 4.04491 1.82727ZM5.49618 6.1539C5.12967 6.51036 4.60532 6.69894 3.98106 6.69894C2.83837 6.69894 2.03972 5.94109 2.03972 4.85514C2.03972 3.75147 2.84546 3.00957 4.04491 3.00957C5.21716 3.00957 5.99156 3.73964 6.01817 4.85573C6.01757 5.36531 5.83254 5.82581 5.49618 6.1539Z" fill="#C29EDF" stroke="#C29EDF" stroke-width="0.5"/>
<path d="M1.42383 30.1123H6.73709V10.5778H1.42383V30.1123ZM2.60613 11.7601H5.55479V28.9294H2.60613V11.7601Z" fill="#C29EDF" stroke="#C29EDF" stroke-width="0.5"/>
<path d="M21.598 10.5778C19.1341 10.5778 17.6255 11.4284 16.7517 12.2283L16.5856 10.5778H10.5742V30.1117H16.4615V19.8452C16.4615 19.403 16.6406 18.485 16.7529 18.2426C17.4641 16.7109 18.4235 16.7109 19.8766 16.7109C21.5501 16.7109 22.9641 18.2805 22.9641 20.1378V30.1129H28.8756V19.0761C28.8756 13.2368 25.1029 10.5778 21.598 10.5778ZM27.6933 28.93H24.1464V20.1373C24.1464 17.6385 22.1909 15.5281 19.8766 15.5281C18.3916 15.5281 16.7092 15.5281 15.68 17.7449C15.4678 18.203 15.2786 19.3008 15.2786 19.8452V28.93H11.7565V11.7601H15.5162L15.7574 14.1507H16.7263L16.8995 13.8711C17.2938 13.2362 18.5406 11.7595 21.598 11.7595C24.5336 11.7595 27.6933 14.0484 27.6933 19.0744V28.93Z" fill="#C29EDF" stroke="#C29EDF" stroke-width="0.5"/>
</g>
<defs>
<clipPath id="clip0_1125_970">
<rect width="30" height="30" fill="white" transform="translate(0 0.970093)"/>
</clipPath>
</defs>
</svg>
