<svg width="50" height="58" viewBox="0 0 50 58" fill="none" xmlns="http://www.w3.org/2000/svg">
<g clip-path="url(#clip0_1125_786)">
<path d="M49.9416 0.267593L45.3972 51.7105L24.9696 57.433L4.59834 51.7184L0.0585938 0.267593H49.9416Z" fill="#B89EDF"/>
<path d="M16.1672 17.095H25.0015V10.7848H9.34247L9.49186 12.4777L11.0268 29.8671H25.0015V23.5568H16.738L16.1672 17.095ZM17.5747 33.0223H11.3058L12.1807 42.9303L24.9728 46.5184L25.0015 46.5105V39.9452L24.9741 39.9525L18.0193 38.0549L17.5747 33.0223Z" fill="#070707"/>
<path d="M24.979 29.8671H32.6688L31.9438 38.051L24.9788 39.9506V46.5155L37.7811 42.9303L37.875 41.8642L39.3426 25.2513L39.495 23.5568H24.979V29.8671ZM24.979 17.0796V17.095H40.0632L40.1883 15.6768L40.473 12.4777L40.6222 10.7848H24.979V17.0796Z" fill="#070707"/>
</g>
<defs>
<clipPath id="clip0_1125_786">
<rect width="50" height="57.6132" fill="white"/>
</clipPath>
</defs>
</svg>
