<svg width="53" height="52" viewBox="0 0 53 52" fill="none" xmlns="http://www.w3.org/2000/svg">
<path d="M48.0202 38.932C45.3019 38.8642 43.195 39.1361 41.428 39.8836C40.9183 40.0873 40.1027 40.0875 40.0347 40.7332C40.3066 41.0051 40.3406 41.4469 40.5784 41.8205C40.9866 42.5 41.6997 43.4176 42.3454 43.8935C43.0589 44.4371 43.7728 44.9807 44.52 45.4564C45.8454 46.2721 47.3407 46.7476 48.632 47.5633C49.3798 48.0387 50.1269 48.6508 50.8745 49.1603C51.2484 49.4318 51.4861 49.874 51.962 50.0437V49.942C51.7239 49.6359 51.656 49.1943 51.4183 48.8545C51.0788 48.5146 50.7386 48.2088 50.3988 47.8689C49.4134 46.5439 48.1902 45.3885 46.865 44.4371C45.7777 43.6894 43.3988 42.6701 42.9572 41.4127C42.9572 41.4127 42.923 41.3789 42.8892 41.3449C43.6366 41.2769 44.52 41.0051 45.2339 40.8012C46.3892 40.4951 47.4425 40.5633 48.632 40.2574C49.1755 40.1215 49.7193 39.9515 50.2628 39.7816V39.476C49.6515 38.8642 49.2097 38.0488 48.564 37.4711C46.831 35.9756 44.9279 34.5146 42.9572 33.2914C41.9036 32.6117 40.5443 32.1699 39.423 31.5924C39.0156 31.3883 38.3357 31.2865 38.098 30.9467C37.4861 30.1992 37.1462 29.2139 36.7046 28.3303C35.7195 26.4611 34.7677 24.3885 33.9181 22.4178C33.3068 21.0924 32.9329 19.767 32.1853 18.5439C28.6853 12.7672 24.8794 9.26717 19.0349 5.83495C17.7775 5.12147 16.2823 4.81561 14.6853 4.44198C13.8361 4.4078 12.9863 4.34002 12.1368 4.30584C11.5931 4.06795 11.0493 3.42245 10.5736 3.11659C8.63704 1.89315 3.64153 -0.757047 2.21438 2.74295C1.2968 4.95155 3.57376 7.12616 4.35501 8.24784C4.93313 9.02928 5.6804 9.91268 6.08821 10.7963C6.3261 11.3736 6.39387 11.9857 6.63176 12.5973C7.17571 14.092 7.68508 15.7574 8.39895 17.1508C8.77278 17.8642 9.1804 18.6117 9.65618 19.2574C9.92805 19.631 10.4036 19.8012 10.5058 20.4127C10.0302 21.0924 9.99602 22.1119 9.72395 22.9613C8.50071 26.8012 8.97669 31.5584 10.7095 34.3787C11.2531 35.2279 12.5445 37.0974 14.2775 36.3836C15.8068 35.7721 15.4669 33.8351 15.9083 32.1361C16.0107 31.7279 15.9427 31.4564 16.1464 31.1846V31.2527C16.6222 32.2039 17.0978 33.1217 17.5396 34.073C18.5931 35.7379 20.4279 37.4711 21.957 38.6265C22.7728 39.2379 23.4183 40.2914 24.4378 40.6652V40.5631H24.3697C24.1657 40.2572 23.8599 40.1215 23.5882 39.8834C22.9767 39.2721 22.2968 38.5244 21.8212 37.8447C20.3943 35.9416 19.1366 33.8349 18.0154 31.6601C17.4718 30.607 16.9958 29.4516 16.5542 28.3982C16.3501 27.99 16.3501 27.3787 16.0105 27.175C15.5007 27.9224 14.7532 28.5681 14.3794 29.4855C13.7341 30.9467 13.6659 32.7476 13.4281 34.6164C13.2921 34.6508 13.3599 34.6164 13.2919 34.6848C12.2048 34.4125 11.831 33.2914 11.423 32.3398C10.4034 29.9273 10.2335 26.0535 11.1173 23.2672C11.3552 22.5535 12.3747 20.3109 11.9669 19.6312C11.763 18.9855 11.0831 18.6117 10.7095 18.1021C10.2679 17.4564 9.79192 16.6412 9.48626 15.9273C8.67063 14.0244 8.26282 11.9176 7.37942 10.0146C6.97161 9.13104 6.25833 8.21385 5.6804 7.39823C5.03489 6.48084 4.32122 5.83495 3.81145 4.74764C3.64173 4.37401 3.40364 3.76229 3.67551 3.35448C3.74348 3.0826 3.87923 2.98084 4.1513 2.91288C4.59309 2.53885 5.85051 3.01463 6.29192 3.21854C7.54934 3.72791 8.60266 4.20409 9.65618 4.91756C10.1318 5.25741 10.6415 5.90311 11.2531 6.07303H11.9667C13.0542 6.31073 14.2773 6.141 15.2968 6.44666C17.098 7.0242 18.7288 7.87381 20.1902 8.79139C24.6417 11.6117 28.3113 15.6215 30.7921 20.4127C31.1999 21.1939 31.3697 21.908 31.7435 22.7232C32.4573 24.3885 33.3407 26.0875 34.054 27.7185C34.7677 29.3154 35.4472 30.9467 36.4667 32.2721C36.9765 32.9853 39.0152 33.3594 39.9327 33.7332C40.6124 34.0389 41.6659 34.3109 42.2775 34.6846C43.4327 35.3978 44.588 36.2139 45.6755 36.9951C46.2193 37.4029 47.9181 38.2525 48.0202 38.932Z" fill="#B89EDF"/>
<path d="M13.3596 9.40272C12.7821 9.40272 12.3745 9.47108 11.9667 9.57284V9.6408H12.0346C12.3067 10.1846 12.7821 10.5584 13.1218 11.034C13.3938 11.5775 13.6315 12.1215 13.9036 12.6652C13.9374 12.631 13.9714 12.5972 13.9714 12.5972C14.4473 12.2572 14.685 11.7137 14.685 10.898C14.4811 10.6603 14.4471 10.4224 14.2772 10.1846C14.0735 9.84451 13.6315 9.67479 13.3596 9.40272Z" fill="#B89EDF"/>
</svg>
