<svg width="62" height="56" viewBox="0 0 62 56" fill="none" xmlns="http://www.w3.org/2000/svg">
<path d="M62 27.7875C62 23.6543 56.8565 19.7374 48.9706 17.3084C50.7905 9.22011 49.9817 2.78511 46.4179 0.724891C45.5964 0.24163 44.636 0.0127172 43.587 0.0127172V2.84869C44.1684 2.84869 44.636 2.96315 45.0277 3.17935C46.7464 4.1713 47.4921 7.94837 46.9107 12.8064C46.7717 14.0018 46.5442 15.2609 46.2662 16.5453C43.7892 15.9349 41.0848 15.4643 38.2413 15.1591C36.5353 12.8064 34.766 10.6699 32.9841 8.80043C37.104 4.94706 40.9711 2.83598 43.5997 2.83598V0C40.1243 0 35.5748 2.49261 30.9747 6.81652C26.3746 2.51804 21.8251 0.0508697 18.3498 0.0508697V2.88685C20.9658 2.88685 24.8455 4.98522 28.9653 8.81315C27.1961 10.6826 25.4268 12.8064 23.746 15.1591C20.8899 15.4643 18.1855 15.9349 15.7085 16.558C15.4179 15.2863 15.203 14.0527 15.0514 12.87C14.4574 8.01195 15.1904 4.23489 16.8965 3.23022C17.2756 3.0013 17.7684 2.89956 18.3498 2.89956V0.0635869C17.2882 0.0635869 16.3278 0.2925 15.4937 0.77576C11.9425 2.83598 11.1464 9.25826 12.9788 17.3211C5.11822 19.7628 0 23.6671 0 27.7875C0 31.9206 5.1435 35.8376 13.0294 38.2666C11.2095 46.3549 12.0183 52.7899 15.5821 54.8501C16.4036 55.3333 17.364 55.5623 18.4256 55.5623C21.9009 55.5623 26.4505 53.0697 31.0506 48.7457C35.6506 53.0442 40.2002 55.5114 43.6755 55.5114C44.7371 55.5114 45.6975 55.2825 46.5316 54.7992C50.0828 52.739 50.8789 46.3167 49.0465 38.2539C56.8818 35.8249 62 31.9079 62 27.7875ZM45.5459 19.305C45.0783 20.9455 44.4969 22.6369 43.8398 24.3284C43.3216 23.311 42.7782 22.2936 42.1843 21.2762C41.6029 20.2588 40.9837 19.2668 40.3645 18.3003C42.159 18.5674 43.8903 18.898 45.5459 19.305ZM39.7578 32.849C38.7721 34.5659 37.7611 36.1937 36.7122 37.7071C34.8292 37.8724 32.9209 37.9614 31 37.9614C29.0917 37.9614 27.1834 37.8724 25.3131 37.7198C24.2642 36.2064 23.2405 34.5913 22.2548 32.8872C21.2943 31.2212 20.4223 29.5298 19.6262 27.8256C20.4097 26.1215 21.2943 24.4174 22.2422 22.7514C23.2279 21.0346 24.2389 19.4067 25.2878 17.8934C27.1708 17.728 29.0791 17.639 31 17.639C32.9083 17.639 34.8166 17.728 36.6869 17.8806C37.7358 19.394 38.7595 21.0091 39.7452 22.7133C40.7057 24.3792 41.5777 26.0706 42.3738 27.7748C41.5777 29.4789 40.7057 31.183 39.7578 32.849ZM43.8398 31.1957C44.5222 32.8999 45.1035 34.604 45.5838 36.2573C43.9283 36.6642 42.1843 37.0076 40.3771 37.2747C40.9963 36.2954 41.6156 35.2907 42.1969 34.2606C42.7782 33.2432 43.3216 32.2131 43.8398 31.1957ZM31.0253 44.7652C29.85 43.5443 28.6747 42.1836 27.512 40.6956C28.6494 40.7465 29.8121 40.7847 30.9874 40.7847C32.1753 40.7847 33.3506 40.7592 34.5006 40.6956C33.3632 42.1836 32.1879 43.5443 31.0253 44.7652ZM21.6229 37.2747C19.8284 37.0076 18.097 36.6769 16.4415 36.27C16.9091 34.6294 17.4904 32.938 18.1476 31.2466C18.6657 32.264 19.2091 33.2814 19.8031 34.2988C20.3971 35.3162 21.0037 36.3081 21.6229 37.2747ZM30.9621 10.8098C32.1374 12.0306 33.3127 13.3914 34.4753 14.8793C33.338 14.8285 32.1753 14.7903 31 14.7903C29.8121 14.7903 28.6368 14.8158 27.4868 14.8793C28.6241 13.3914 29.7994 12.0306 30.9621 10.8098ZM21.6103 18.3003C20.991 19.2796 20.3718 20.2842 19.7905 21.3143C19.2091 22.3317 18.6657 23.3491 18.1476 24.3665C17.4651 22.6624 16.8838 20.9583 16.4036 19.305C18.0591 18.9108 19.8031 18.5674 21.6103 18.3003ZM10.1733 34.2225C5.69955 32.3022 2.80554 29.7841 2.80554 27.7875C2.80554 25.7909 5.69955 23.2601 10.1733 21.3525C11.2601 20.8819 12.448 20.4623 13.6739 20.068C14.3942 22.5606 15.342 25.155 16.5173 27.8129C15.3547 30.4581 14.4195 33.0398 13.7118 35.5197C12.4607 35.1254 11.2727 34.693 10.1733 34.2225ZM16.9723 52.3956C15.2536 51.4037 14.508 47.6266 15.0893 42.7686C15.2283 41.5731 15.4558 40.3141 15.7338 39.0297C18.2108 39.6401 20.9152 40.1106 23.7587 40.4159C25.4647 42.7686 27.234 44.9051 29.0159 46.7745C24.896 50.6279 21.0289 52.739 18.4003 52.739C17.8316 52.7263 17.3514 52.6118 16.9723 52.3956ZM46.9486 42.705C47.5426 47.563 46.8096 51.3401 45.1035 52.3448C44.7244 52.5737 44.2315 52.6754 43.6502 52.6754C41.0342 52.6754 37.1545 50.577 33.0347 46.7491C34.8039 44.8797 36.5732 42.7559 38.254 40.4031C41.1101 40.0979 43.8145 39.6274 46.2915 39.0042C46.5821 40.2887 46.8096 41.5223 46.9486 42.705ZM51.8141 34.2225C50.7273 34.693 49.5393 35.1127 48.3135 35.5069C47.5932 33.0143 46.6453 30.42 45.47 27.7621C46.6327 25.1168 47.5679 22.5352 48.2756 20.0553C49.5267 20.4496 50.7146 20.8819 51.8267 21.3525C56.3004 23.2728 59.1945 25.7909 59.1945 27.7875C59.1818 29.7841 56.2878 32.3149 51.8141 34.2225Z" fill="#B89EDF"/>
<path d="M30.9874 33.5993C34.1771 33.5993 36.7628 30.9973 36.7628 27.7875C36.7628 24.5777 34.1771 21.9756 30.9874 21.9756C27.7978 21.9756 25.212 24.5777 25.212 27.7875C25.212 30.9973 27.7978 33.5993 30.9874 33.5993Z" fill="#B89EDF"/>
</svg>
