<svg width="70" height="45" viewBox="0 0 70 45" fill="none" xmlns="http://www.w3.org/2000/svg">
<path d="M47.2908 6.54602L47.0721 7.68644C46.7338 9.84769 46.8562 10.466 47.7837 11.2681L48.6792 12.0089L47.7517 16.1448C47.1975 18.6123 46.5179 20.6802 46.0863 21.3598C45.7158 21.946 45.2842 22.8094 45.1908 23.2731C45.0363 23.8273 44.5113 24.3844 43.7092 24.8773C43.0004 25.2798 41.6092 26.3589 40.6233 27.2252C39.8358 27.9339 39.2933 28.3685 38.9988 28.5552L38.0363 29.3164C37.7271 29.8123 37.5521 30.2119 37.485 30.5152C37.4179 30.8273 37.4558 31.0344 37.555 31.186C37.6513 31.3319 37.8175 31.4339 38.045 31.4981C38.3143 31.5612 38.5915 31.5838 38.8675 31.5652C39.4919 31.5225 40.1098 31.413 40.7108 31.2385C40.915 31.1831 41.0754 31.1306 41.2154 31.0839C41.4312 30.8185 41.93 30.3169 42.8138 29.4448C45.1588 27.1319 46.0542 25.866 45.1296 26.2073C44.7883 26.3298 44.9429 26.0206 45.5292 25.4023C46.7658 24.1977 47.4746 22.3777 48.9563 16.6698C50.1288 12.1635 50.1288 12.0994 50.9921 12.0994C51.3975 12.0994 52.5437 12.1694 52.5437 12.1694V6.54602H49.9129H47.2908ZM58.4879 15.7773C58.3013 15.7773 57.9921 16.0573 57.8083 16.3664C57.47 16.9206 57.8696 17.2589 62.9621 20.4381C65.9867 22.3544 68.425 23.9877 68.3637 24.1131C68.3025 24.2035 65.8321 25.8106 62.8717 27.6627C57.4992 30.9935 57.47 31.0256 57.9629 31.7052C58.5812 32.5073 57.9629 32.7844 64.9367 28.4327L70 25.1923V22.7539L64.3504 19.2656C61.2967 17.3523 58.6425 15.8094 58.4879 15.7773ZM11.5733 16.1185C11.4188 16.1185 8.76458 17.6935 5.71083 19.5748L0 23.0631V25.5014L5.67875 29.051C8.82875 30.9935 11.4829 32.6006 11.6054 32.6006C11.7279 32.6006 11.9758 32.3206 12.2238 31.9823C12.5942 31.396 12.2821 31.1481 7.06708 27.8464C2.1 24.7285 1.575 24.2969 2.07083 23.9585C2.38 23.7427 4.725 22.2902 7.25667 20.7181C13.0288 17.1685 12.7196 17.4135 12.2558 16.6727C12.0721 16.3664 11.76 16.0894 11.5763 16.1185H11.5733ZM36.9017 16.1856C36.05 16.1798 34.2183 17.4777 28.735 21.9548C28.4988 22.5177 28.4783 22.9056 28.5862 23.1564C28.6562 23.3285 28.7846 23.4481 28.9625 23.5356C29.1375 23.6231 29.365 23.6756 29.6158 23.696C30.1146 23.7398 30.7037 23.661 31.1792 23.5677L31.5 23.4948C31.6098 23.3475 31.754 23.2293 31.92 23.1506C32.2583 22.9639 33.6788 21.6689 35.0992 20.2806C37.5988 17.7489 38.185 16.6056 37.1671 16.2352C37.0836 16.202 36.9915 16.1851 36.9017 16.1856ZM43.3067 17.9444C42.5571 17.9648 41.2067 18.8339 38.8938 20.6802C37.7329 21.6223 36.9979 22.1298 36.6042 22.2348L35.0758 23.4423C34.5013 24.4923 34.4167 25.1427 34.5683 25.5014C34.6063 25.5899 34.6614 25.67 34.7305 25.7371C34.7996 25.8042 34.8813 25.8569 34.9708 25.8923C35.1937 25.9803 35.4313 26.0248 35.6708 26.0235C36.2433 26.0174 36.8123 25.934 37.3625 25.7756C37.6492 25.6987 37.9324 25.6091 38.2113 25.5073L38.2958 25.4723L38.4504 25.3906C38.7421 25.0144 39.4129 24.3056 40.2529 23.4889C42.9071 20.9281 44.2633 19.1081 43.9863 18.4285C43.8608 18.0989 43.645 17.9327 43.3067 17.9444ZM36.2367 21.0944C36.0208 21.1177 35.5367 21.491 34.6646 22.2552C33.4046 23.3694 32.0308 24.011 31.5554 23.7252C31.4449 23.7501 31.3341 23.7735 31.2229 23.7952C30.7388 23.8914 30.135 23.9702 29.5954 23.9264C29.3412 23.911 29.092 23.8487 28.8604 23.7427C28.642 23.6428 28.4677 23.4664 28.3704 23.2469C28.2625 22.9844 28.2625 22.6577 28.385 22.2406L26.4892 23.7981L22.1988 27.3477V33.1023L36.2571 22.0277C36.2544 21.9064 36.2701 21.7855 36.3037 21.6689C36.4117 21.2781 36.4058 21.0798 36.2367 21.0973V21.0944ZM42.2858 22.9581C42.0729 22.9581 41.7171 23.2585 41.1483 23.8623C40.3754 24.6877 39.1592 25.4869 38.5146 25.6502L38.4154 25.7027C38.3096 25.7464 38.2026 25.7872 38.0946 25.8252C37.9196 25.8835 37.6921 25.9535 37.4296 26.0235C36.9046 26.1664 36.2513 26.2977 35.6679 26.2831C35.3929 26.2828 35.1206 26.2293 34.8658 26.1256C34.6257 26.0266 34.4334 25.8385 34.3292 25.6006C34.16 25.1952 34.2271 24.6264 34.5975 23.8185L22.1958 33.5864V37.101H27.6442L39.2 28.0244C39.5004 27.6919 39.9525 27.2369 40.5621 26.6681C42.1954 25.1544 42.5658 24.6323 42.5658 23.8594C42.5658 23.2585 42.4988 22.9552 42.2858 22.9552V22.9581ZM45.0363 28.6456L44.0475 29.6314C43.4933 30.1564 42.5046 30.8039 41.8279 31.081L41.6938 31.1394L41.685 31.1539L41.6558 31.1831C41.6296 31.2035 41.6179 31.2064 41.5975 31.2152C41.3274 31.3174 41.053 31.4079 40.775 31.4864C40.157 31.6663 39.5214 31.7788 38.8792 31.8219C38.5755 31.8413 38.2707 31.8148 37.975 31.7431C37.7184 31.6866 37.4918 31.537 37.3392 31.3231C37.1992 31.1073 37.1583 30.8185 37.2371 30.4627C37.2997 30.2094 37.3928 29.9645 37.5142 29.7335L28.1896 37.101H40.5913L42.0729 35.4035C44.1088 33.0294 45.0363 31.3319 45.0363 29.8794V28.6456Z" fill="#B89EDF"/>
</svg>
