<svg width="53" height="53" viewBox="0 0 53 53" fill="none" xmlns="http://www.w3.org/2000/svg">
<g clip-path="url(#clip0_1160_57)">
<path d="M0 26.5V3C0 1.34314 1.34315 0 3 0H50C51.6569 0 53 1.34315 53 3V50C53 51.6569 51.6569 53 50 53H0" fill="#B89EDF"/>
<path d="M11.6202 26.5927V28.7525H18.5102V48.3625H23.3995V28.7525H30.2895V26.6325C30.2895 25.44 30.2895 24.4727 30.2365 24.4462C30.2365 24.4065 26.0362 24.3932 20.935 24.3932L11.66 24.433V26.606L11.6202 26.5927ZM42.5855 24.38C43.937 24.698 44.9705 25.3075 45.898 26.2747C46.3882 26.8047 47.117 27.7322 47.17 27.9707C47.17 28.0502 44.8777 29.6005 43.4865 30.4617C43.4335 30.5015 43.2215 30.2762 43.0095 29.9317C42.3205 28.9512 41.6182 28.5272 40.5185 28.4477C38.9285 28.3417 37.8685 29.1765 37.8685 30.5677C37.8685 30.9917 37.948 31.2302 38.107 31.5747C38.4647 32.3035 39.1272 32.7407 41.181 33.6417C44.9705 35.2715 46.6135 36.3447 47.6072 37.8817C48.7335 39.6042 48.9852 42.3072 48.23 44.3345C47.382 46.5472 45.315 48.0445 42.3602 48.5347C41.4327 48.6937 39.3127 48.6672 38.319 48.495C36.199 48.0975 34.1717 47.0375 32.9262 45.6728C32.436 45.1428 31.4952 43.725 31.5482 43.6322L32.0517 43.3142L34.0392 42.1615L35.5365 41.287L35.881 41.7507C36.3182 42.4397 37.2987 43.3673 37.8685 43.6853C39.591 44.573 41.8965 44.4538 43.036 43.4203C43.5262 42.9698 43.7382 42.4928 43.7382 41.8303C43.7382 41.2208 43.6455 40.9425 43.3407 40.4787C42.9167 39.8957 42.0687 39.4187 39.6837 38.3587C36.941 37.1927 35.775 36.4507 34.6885 35.3112C34.0657 34.6222 33.496 33.549 33.231 32.6612C33.0322 31.8927 32.966 30.0112 33.1515 29.256C33.7212 26.606 35.722 24.751 38.584 24.221C39.5115 24.0355 41.6977 24.115 42.612 24.3535L42.5855 24.38Z" fill="#111111"/>
</g>
<defs>
<clipPath id="clip0_1160_57">
<rect width="53" height="53" fill="white"/>
</clipPath>
</defs>
</svg>
