<svg width="50" height="58" viewBox="0 0 50 58" fill="none" xmlns="http://www.w3.org/2000/svg">
<g clip-path="url(#clip0_1125_777)">
<path d="M24.9696 57.4326L4.94044 51.7091L0.476929 0.177032H49.5223L45.0542 51.7011L24.9696 57.4326Z" fill="#B89EDF"/>
<path d="M41.2293 48.4202L45.0475 4.39038H25V53.0515L41.2293 48.4202Z" fill="#B89EDF"/>
<path d="M10.7103 23.5031L11.2606 29.8233H25.0006V23.5031H10.7103ZM9.60449 10.7109L10.1626 17.0311H25.0006V10.7109H9.60449V10.7109ZM25.0006 39.9174L24.9737 39.9247L18.1357 38.0241L17.6985 32.9835H11.5349L12.395 42.9072L24.9724 46.501L25.0006 46.493V39.9174Z" fill="#070707"/>
<path d="M39.2513 23.5031L40.3596 10.7109H24.9791V17.0311H33.6308L33.0721 23.5031H24.9791V29.8233H32.5398L31.8269 38.0201L24.9789 39.9227V46.498L37.5662 42.9072L37.6585 41.8393L39.1015 25.2003L39.2513 23.5031V23.5031Z" fill="#070707"/>
</g>
<defs>
<clipPath id="clip0_1125_777">
<rect width="50" height="57.6132" fill="white"/>
</clipPath>
</defs>
</svg>
