<svg width="53" height="53" viewBox="0 0 53 53" fill="none" xmlns="http://www.w3.org/2000/svg">
<g clip-path="url(#clip0_1160_112)">
<path d="M0 2C0 0.895429 0.895431 0 2 0H51C52.1046 0 53 0.895431 53 2V51C53 52.1046 52.1046 53 51 53H2C0.895429 53 0 52.1046 0 51V2Z" fill="#B89EDF"/>
<path d="M48.6623 40.3596C48.2744 37.9413 46.6975 35.911 42.0272 34.0167C40.405 33.2711 38.5963 32.7371 38.0573 31.5078C37.8658 30.7924 37.8406 30.3893 37.9615 29.9561C38.3092 28.5505 39.9868 28.1122 41.3169 28.5152C42.1733 28.8024 42.9845 29.4624 43.4731 30.5153C45.7604 29.0342 45.7554 29.0442 47.3524 28.0266C46.768 27.1197 46.4557 26.7015 46.0728 26.3136C44.6974 24.777 42.8232 23.9861 39.8256 24.0465C39.3067 24.112 38.7828 24.1825 38.2638 24.248C36.7676 24.6259 35.3418 25.4118 34.5055 26.4648C31.9965 29.3113 32.7119 34.2938 35.765 36.3443C38.7727 38.6014 43.191 39.1153 43.7553 41.2262C44.3044 43.8107 41.856 44.647 39.4226 44.3498C37.629 43.9769 36.6316 43.0651 35.5534 41.4076C33.5684 42.5562 33.5684 42.5562 31.528 43.7301C32.0117 44.7881 32.5205 45.2667 33.3317 46.1836C37.1706 50.078 46.7781 49.8865 48.5011 43.9921C48.5716 43.7905 49.0352 42.4403 48.6623 40.3596ZM28.8125 24.3588H23.8551C23.8551 28.6412 23.835 32.8932 23.835 37.1756C23.835 39.9011 23.976 42.4 23.5327 43.1658C22.8072 44.6721 20.928 44.4857 20.0716 44.1935C19.2 43.7652 18.7567 43.1556 18.2428 42.2942C18.1017 42.0473 17.9959 41.8559 17.9606 41.8408C16.6155 42.662 15.2753 43.4882 13.9302 44.3094C14.6003 45.6848 15.5877 46.8788 16.8522 47.6546C18.7415 48.7882 21.2807 49.1358 23.9357 48.5262C25.6638 48.0224 27.155 46.9796 27.9359 45.3926C29.0644 43.3119 28.8226 40.7929 28.8125 38.0068C28.8377 33.4625 28.8125 28.9182 28.8125 24.3588Z" fill="#111111"/>
</g>
<defs>
<clipPath id="clip0_1160_112">
<rect width="53" height="53" fill="white"/>
</clipPath>
</defs>
</svg>
