<svg width="65" height="60" viewBox="0 0 65 60" fill="none" xmlns="http://www.w3.org/2000/svg">
<path d="M65 29.8996C65 25.5664 59.6076 21.46 51.3402 18.9134C53.2481 10.4338 52.4001 3.6874 48.6639 1.5275C47.8027 1.02085 46.7958 0.780865 45.6961 0.780865V3.75407C46.3055 3.75407 46.7958 3.87406 47.2065 4.10072C49.0084 5.14067 49.7901 9.1005 49.1806 14.1936C49.0349 15.4469 48.7964 16.7668 48.5049 18.1134C45.9081 17.4735 43.0728 16.9801 40.0917 16.6602C38.3031 14.1936 36.4482 11.9537 34.5801 9.99379C38.8993 5.95397 42.9535 3.74073 45.7093 3.74073V0.767532C42.0658 0.767532 37.2962 3.38075 32.4735 7.91388C27.6508 3.40742 22.8812 0.820864 19.2377 0.820864V3.79406C21.9802 3.79406 26.0477 5.99397 30.3669 10.0071C28.512 11.967 26.6572 14.1936 24.895 16.6602C21.9007 16.9801 19.0654 17.4735 16.4686 18.1268C16.1639 16.7935 15.9386 15.5002 15.7797 14.2603C15.1569 9.16716 15.9254 5.20734 17.714 4.15405C18.1115 3.91406 18.6282 3.8074 19.2377 3.8074V0.834196C18.1247 0.834196 17.1178 1.07419 16.2434 1.58083C12.5204 3.74073 11.6857 10.4738 13.6068 18.9267C5.36588 21.4866 0 25.5798 0 29.8996C0 34.2327 5.39238 38.3392 13.6598 40.8858C11.7519 49.3654 12.5999 56.1118 16.3361 58.2717C17.1973 58.7783 18.2042 59.0183 19.3172 59.0183C22.9607 59.0183 27.7303 56.4051 32.553 51.8719C37.3757 56.3784 42.1453 58.965 45.7888 58.965C46.9018 58.965 47.9087 58.725 48.7831 58.2183C52.5061 56.0584 53.3408 49.3254 51.4197 40.8724C59.6341 38.3259 65 34.2194 65 29.8996ZM47.7497 21.0066C47.2595 22.7266 46.65 24.4998 45.9611 26.2731C45.4179 25.2065 44.8481 24.1398 44.2254 23.0732C43.616 22.0066 42.9668 20.9666 42.3176 19.9534C44.1989 20.2333 46.0141 20.58 47.7497 21.0066ZM41.6816 35.206C40.6482 37.0059 39.5883 38.7125 38.4886 40.2991C36.5145 40.4724 34.5139 40.5658 32.5 40.5658C30.4994 40.5658 28.4988 40.4724 26.5379 40.3125C25.4382 38.7259 24.3651 37.0326 23.3316 35.246C22.3247 33.4994 21.4105 31.7262 20.5758 29.9396C21.3973 28.153 22.3247 26.3664 23.3184 24.6198C24.3518 22.8199 25.4117 21.1133 26.5114 19.5267C28.4855 19.3534 30.4861 19.26 32.5 19.26C34.5006 19.26 36.5012 19.3534 38.4621 19.5134C39.5618 21.1 40.6349 22.7932 41.6684 24.5798C42.6753 26.3264 43.5895 28.0997 44.4242 29.8862C43.5895 31.6728 42.6753 33.4594 41.6816 35.206ZM45.9611 33.4728C46.6765 35.2593 47.286 37.0459 47.7894 38.7792C46.0538 39.2058 44.2254 39.5658 42.3308 39.8458C42.98 38.8192 43.6292 37.7659 44.2387 36.6859C44.8481 35.6193 45.4179 34.5394 45.9611 33.4728ZM32.5265 47.6988C31.2943 46.4188 30.0622 44.9922 28.8433 43.4323C30.0357 43.4856 31.2546 43.5256 32.4868 43.5256C33.7322 43.5256 34.9643 43.499 36.17 43.4323C34.9776 44.9922 33.7454 46.4188 32.5265 47.6988ZM22.6692 39.8458C20.7878 39.5658 18.9727 39.2192 17.2371 38.7925C17.7273 37.0726 18.3367 35.2993 19.0257 33.5261C19.5689 34.5927 20.1386 35.6593 20.7613 36.7259C21.384 37.7926 22.02 38.8325 22.6692 39.8458ZM32.4603 12.1004C33.6924 13.3803 34.9246 14.8069 36.1435 16.3668C34.9511 16.3135 33.7322 16.2735 32.5 16.2735C31.2546 16.2735 30.0224 16.3002 28.8168 16.3668C30.0092 14.8069 31.2413 13.3803 32.4603 12.1004ZM22.6559 19.9534C22.0067 20.98 21.3575 22.0333 20.7481 23.1132C20.1386 24.1798 19.5689 25.2465 19.0257 26.3131C18.3102 24.5265 17.7008 22.7399 17.1973 21.0066C18.9329 20.5933 20.7613 20.2333 22.6559 19.9534ZM10.6655 36.6459C5.97534 34.6327 2.9413 31.9928 2.9413 29.8996C2.9413 27.8063 5.97534 25.1531 10.6655 23.1532C11.8049 22.6599 13.0503 22.2199 14.3355 21.8066C15.0907 24.4198 16.0844 27.1397 17.3166 29.9262C16.0976 32.6995 15.1172 35.406 14.3753 38.0059C13.0636 37.5926 11.8182 37.1393 10.6655 36.6459ZM17.7935 55.6984C15.9916 54.6585 15.2099 50.6987 15.8194 45.6055C15.9651 44.3523 16.2036 43.0323 16.4951 41.6857C19.0919 42.3257 21.9272 42.819 24.9083 43.139C26.6969 45.6055 28.5518 47.8454 30.4199 49.8054C26.1007 53.8452 22.0465 56.0584 19.2907 56.0584C18.6945 56.0451 18.191 55.9251 17.7935 55.6984ZM49.2203 45.5389C49.843 50.632 49.0746 54.5918 47.286 55.6451C46.8885 55.8851 46.3718 55.9918 45.7623 55.9918C43.0198 55.9918 38.9523 53.7919 34.6331 49.7787C36.488 47.8188 38.3428 45.5922 40.105 43.1257C43.0993 42.8057 45.9346 42.3124 48.5314 41.6591C48.8361 43.0057 49.0746 44.2989 49.2203 45.5389ZM54.3212 36.6459C53.1818 37.1393 51.9364 37.5792 50.6512 37.9926C49.896 35.3793 48.9024 32.6595 47.6702 29.8729C48.8891 27.0997 49.8695 24.3932 50.6115 21.7933C51.9232 22.2066 53.1686 22.6599 54.3345 23.1532C59.0247 25.1665 62.0587 27.8063 62.0587 29.8996C62.0455 31.9928 59.0114 34.646 54.3212 36.6459Z" fill="#B89EDF"/>
<path d="M32.4868 35.9927C35.8308 35.9927 38.5416 33.2647 38.5416 29.8996C38.5416 26.5345 35.8308 23.8065 32.4868 23.8065C29.1428 23.8065 26.4319 26.5345 26.4319 29.8996C26.4319 33.2647 29.1428 35.9927 32.4868 35.9927Z" fill="#B89EDF"/>
</svg>
