<svg width="85" height="85" viewBox="0 0 85 85" fill="none" xmlns="http://www.w3.org/2000/svg">
<g clip-path="url(#clip0_1193_30)">
<path d="M57.4246 23.9488L57.159 25.3335C56.7481 27.9579 56.8969 28.7087 58.0231 29.6827L59.1104 30.5823L57.9842 35.6044C57.3113 38.6006 56.486 41.1117 55.9619 41.9369C55.5121 42.6487 54.9879 43.6971 54.8746 44.2602C54.6869 44.9331 54.0494 45.6096 53.0754 46.2081C52.2148 46.6969 50.5254 48.0073 49.3283 49.0592C48.3721 49.9198 47.7133 50.4475 47.3556 50.6742L46.1869 51.5985C45.8115 52.2006 45.599 52.6858 45.5175 53.0542C45.436 53.4331 45.4821 53.6846 45.6025 53.8687C45.7194 54.0458 45.9212 54.1698 46.1975 54.2477C46.5245 54.3244 46.8611 54.3518 47.1963 54.3292C47.9544 54.2774 48.7048 54.1444 49.4346 53.9325C49.6825 53.8652 49.8773 53.8015 50.0473 53.7448C50.3094 53.4225 50.915 52.8133 51.9881 51.7544C54.8356 48.9458 55.9229 47.4088 54.8002 47.8231C54.3858 47.9719 54.5735 47.5965 55.2854 46.8456C56.7871 45.3829 57.6477 43.1729 59.4469 36.2419C60.8706 30.77 60.8706 30.6921 61.919 30.6921C62.4113 30.6921 63.8031 30.7771 63.8031 30.7771V23.9488H60.6085H57.4246ZM71.021 35.1581C70.7944 35.1581 70.419 35.4981 70.1958 35.8735C69.785 36.5465 70.2702 36.9573 76.454 40.8177C80.1267 43.1446 83.0875 45.1279 83.0131 45.2802C82.9387 45.39 79.939 47.3415 76.3442 49.5904C69.8204 53.635 69.785 53.674 70.3835 54.4992C71.1344 55.4731 70.3835 55.8096 78.8517 50.5254L85 46.5906V43.6298L78.1398 39.394C74.4317 37.0706 71.2087 35.1971 71.021 35.1581ZM14.0533 35.5725C13.8656 35.5725 10.6427 37.485 6.93458 39.7694L0 44.0052V46.966L6.89563 51.2762C10.7206 53.635 13.9435 55.5865 14.0923 55.5865C14.241 55.5865 14.5421 55.2465 14.8431 54.8356C15.2929 54.1237 14.914 53.8227 8.58146 49.8135C2.55 46.0275 1.9125 45.5033 2.51458 45.0925C2.89 44.8304 5.7375 43.0667 8.81167 41.1577C15.8206 36.8475 15.4452 37.145 14.8821 36.2454C14.659 35.8735 14.28 35.5371 14.0569 35.5725H14.0533ZM44.8092 35.654C43.775 35.6469 41.5508 37.2229 34.8925 42.6594C34.6056 43.3429 34.5808 43.814 34.7119 44.1185C34.7969 44.3275 34.9527 44.4727 35.1688 44.579C35.3813 44.6852 35.6575 44.749 35.9621 44.7738C36.5677 44.8269 37.2831 44.7312 37.8604 44.6179L38.25 44.5294C38.3834 44.3505 38.5585 44.2071 38.76 44.1115C39.1708 43.8848 40.8956 42.3123 42.6204 40.6265C45.6556 37.5523 46.3675 36.164 45.1315 35.7142C45.0301 35.6738 44.9183 35.6534 44.8092 35.654ZM52.5867 37.7896C51.6765 37.8144 50.0367 38.8698 47.2281 41.1117C45.8185 42.2556 44.926 42.8719 44.4479 42.9994L42.5921 44.4656C41.8944 45.7406 41.7917 46.5304 41.9758 46.966C42.0219 47.0735 42.0889 47.1708 42.1727 47.2522C42.2566 47.3337 42.3558 47.3977 42.4646 47.4406C42.7352 47.5475 43.0237 47.6016 43.3146 47.6C44.0097 47.5926 44.7007 47.4913 45.3688 47.299C45.7169 47.2055 46.0608 47.0968 46.3994 46.9731L46.5021 46.9306L46.6898 46.8315C47.044 46.3746 47.8585 45.514 48.8785 44.5223C52.1015 41.4127 53.7483 39.2027 53.4119 38.3775C53.2596 37.9773 52.9975 37.7754 52.5867 37.7896ZM44.0017 41.6146C43.7396 41.6429 43.1517 42.0962 42.0927 43.0242C40.5627 44.3771 38.8946 45.1563 38.3173 44.8092C38.1831 44.8395 38.0485 44.8678 37.9135 44.8942C37.3256 45.011 36.5925 45.1067 35.9373 45.0535C35.6286 45.0348 35.326 44.9592 35.0448 44.8304C34.7796 44.7092 34.5679 44.495 34.4498 44.2283C34.3188 43.9096 34.3188 43.5129 34.4675 43.0065L32.1654 44.8977L26.9556 49.2079V56.1956L44.0265 42.7479C44.0231 42.6007 44.0423 42.4538 44.0831 42.3123C44.2142 41.8377 44.2071 41.5969 44.0017 41.6181V41.6146ZM51.3471 43.8777C51.0885 43.8777 50.6565 44.2425 49.9658 44.9756C49.0273 45.9779 47.5504 46.9483 46.7677 47.1467L46.6473 47.2104C46.5188 47.2635 46.3889 47.3131 46.2577 47.3592C46.0452 47.43 45.769 47.515 45.4502 47.6C44.8127 47.7735 44.0194 47.9329 43.311 47.9152C42.9771 47.9148 42.6464 47.8498 42.3371 47.724C42.0456 47.6038 41.812 47.3753 41.6854 47.0865C41.48 46.5942 41.5615 45.9035 42.0113 44.9225L26.9521 56.7835V61.0513H33.5679L47.6 50.0296C47.9648 49.6258 48.5137 49.0733 49.254 48.3827C51.2373 46.5446 51.6871 45.9106 51.6871 44.9721C51.6871 44.2425 51.6056 43.8742 51.3471 43.8742V43.8777ZM54.6869 50.784L53.4863 51.981C52.8133 52.6185 51.6127 53.4048 50.791 53.7412L50.6281 53.8121L50.6175 53.8298L50.5821 53.8652C50.5502 53.89 50.536 53.8935 50.5113 53.9042C50.1832 54.0283 49.85 54.1382 49.5125 54.2335C48.7621 54.452 47.9902 54.5885 47.2104 54.6408C46.8417 54.6645 46.4716 54.6322 46.1125 54.5452C45.8009 54.4766 45.5258 54.2949 45.3404 54.0352C45.1704 53.7731 45.1208 53.4225 45.2165 52.9904C45.2925 52.6828 45.4055 52.3855 45.5529 52.105L34.2302 61.0513H49.2894L51.0885 58.99C53.5606 56.1071 54.6869 54.0458 54.6869 52.2821V50.784Z" fill="#B89EDF"/>
</g>
<defs>
<clipPath id="clip0_1193_30">
<rect width="85" height="85" fill="white"/>
</clipPath>
</defs>
</svg>
