<svg width="63" height="38" viewBox="0 0 63 38" fill="none" xmlns="http://www.w3.org/2000/svg">
<path d="M32 2C24.2667 2 19.4333 5.86674 17.5 13.6C20.4 9.73326 23.7833 8.28326 27.65 9.25C29.856 9.80145 31.4329 11.4021 33.1784 13.1736C36.0217 16.0598 39.3123 19.4 46.5 19.4C54.2333 19.4 59.0667 15.5333 61 7.8C58.1 11.6667 54.7167 13.1167 50.85 12.15C48.644 11.5985 47.0671 9.99788 45.3216 8.22639C42.4783 5.34021 39.1877 2 32 2ZM17.5 19.4C9.76674 19.4 4.93326 23.2667 3 31C5.9 27.1333 9.28326 25.6833 13.15 26.65C15.356 27.2015 16.9329 28.8021 18.6784 30.5736C21.5217 33.4598 24.8123 36.8 32 36.8C39.7333 36.8 44.5667 32.9333 46.5 25.2C43.6 29.0667 40.2167 30.5167 36.35 29.55C34.144 28.9985 32.5671 27.3979 30.8216 25.6264C27.9783 22.7402 24.6877 19.4 17.5 19.4Z" fill="#B89EDF"/>
</svg>
