<svg width="400" height="400" viewBox="0 0 400 400" fill="none" xmlns="http://www.w3.org/2000/svg">
<rect width="400" height="400" fill="#070707"/>
<path d="M331.616 269C336.664 269 340.683 265.188 340.683 259.888C340.683 254.495 336.664 250.961 331.616 250.961C326.568 250.961 322.549 254.495 322.549 259.888C322.549 265.188 326.568 269 331.616 269Z" fill="#D6FF6A"/>
<path fill-rule="evenodd" clip-rule="evenodd" d="M75.3905 145.674C74.3079 145.674 73.7462 146.477 73.7462 147.086V252.26C73.7462 252.869 74.3079 253.673 75.3905 253.673H199.657V267.346H75.3905C67.065 267.346 60 260.763 60 252.26V147.086C60 138.583 67.065 132 75.3905 132H194.236C200.112 132 205.572 135.296 208.148 140.635L262.938 254.187C263.182 254.693 263.662 255.04 264.397 255.064C265.134 255.087 265.65 254.77 265.936 254.266L326.498 147.699C326.65 147.43 326.68 147.224 326.675 147.061C326.669 146.876 326.611 146.658 326.476 146.437C326.215 146.008 325.74 145.674 325.019 145.674H277.308V132H325.019C336.442 132 344.334 144.099 338.464 154.428L277.903 260.995C271.823 271.693 255.91 271.223 250.545 260.103L195.756 146.552C195.531 146.087 194.975 145.674 194.236 145.674H75.3905Z" fill="#9B6DDF"/>
<path d="M201.157 253.673V252.173H199.657H75.3905C75.3084 252.173 75.2661 252.158 75.2506 252.152C75.249 252.151 75.2476 252.15 75.2462 252.15V147.197C75.2476 147.196 75.249 147.195 75.2506 147.195C75.2661 147.188 75.3084 147.174 75.3905 147.174H194.236C194.32 147.174 194.37 147.196 194.397 147.212C194.405 147.218 194.411 147.223 194.415 147.226L249.194 260.755C255.089 272.972 272.534 273.477 279.207 261.736L339.768 155.169C346.258 143.749 337.486 130.5 325.019 130.5H277.308H275.808V132V145.674V147.174H277.308H325.019C325.038 147.174 325.055 147.175 325.07 147.176L264.632 253.524C264.627 253.533 264.624 253.538 264.621 253.542C264.62 253.543 264.619 253.544 264.618 253.545C264.617 253.546 264.615 253.546 264.613 253.547C264.608 253.549 264.599 253.552 264.587 253.555C264.562 253.56 264.516 253.567 264.445 253.565C264.374 253.562 264.33 253.553 264.308 253.546C264.301 253.544 264.296 253.543 264.292 253.541C264.291 253.539 264.29 253.537 264.289 253.535L209.499 139.983L208.181 140.62L209.499 139.983C206.664 134.108 200.667 130.5 194.236 130.5H75.3905C66.2874 130.5 58.5 137.705 58.5 147.086V252.26C58.5 261.642 66.2874 268.846 75.3905 268.846H199.657H201.157V267.346V253.673ZM331.616 270.5C337.474 270.5 342.183 266.034 342.183 259.888C342.183 253.598 337.422 249.461 331.616 249.461C325.81 249.461 321.049 253.598 321.049 259.888C321.049 266.034 325.758 270.5 331.616 270.5Z" stroke="#9B6DDF" stroke-width="3"/>
</svg>
