<svg width="82" height="40" viewBox="0 0 82 40" fill="none" xmlns="http://www.w3.org/2000/svg">
<path d="M79.3511 39.5C80.8258 39.5 82 38.4148 82 36.906C82 35.3708 80.8258 34.3649 79.3511 34.3649C77.8765 34.3649 76.7023 35.3708 76.7023 36.906C76.7023 38.4148 77.8765 39.5 79.3511 39.5Z" fill="#6B2FC5"/>
<path fill-rule="evenodd" clip-rule="evenodd" d="M4.49624 4.39256C4.17997 4.39256 4.01587 4.62127 4.01587 4.79453V34.7347C4.01587 34.908 4.17997 35.1367 4.49624 35.1367H40.8V39.0293H4.49624C2.064 39.0293 0 37.1553 0 34.7347V4.79453C0 2.37398 2.064 0.5 4.49624 0.5H39.2162C40.9329 0.5 42.5281 1.43833 43.2807 2.9582L59.2871 35.283C59.3586 35.4273 59.4988 35.5261 59.7136 35.5327C59.9287 35.5394 60.0794 35.4491 60.1632 35.3055L77.8559 4.96901C77.9004 4.89257 77.9092 4.8337 77.9076 4.78736C77.9058 4.73489 77.889 4.67264 77.8496 4.60968C77.7731 4.48763 77.6346 4.39256 77.4239 4.39256H63.4854V0.5H77.4239C80.7611 0.5 83.0667 3.9442 81.3518 6.88461L63.6591 37.2211C61.883 40.2665 57.2341 40.1328 55.6667 36.9674L39.6603 4.64256C39.5947 4.51012 39.4321 4.39256 39.2162 4.39256H4.49624Z" fill="white"/>
</svg>
